<svg width="131" height="51" viewBox="0 0 131 51" fill="none" xmlns="http://www.w3.org/2000/svg">
<path d="M5.016 22.68V32.832C5.016 34.192 5.344 35.184 6 35.808C6.656 36.416 7.504 36.72 8.544 36.72C9.6 36.72 10.448 36.4 11.088 35.76C11.744 35.12 12.072 34.144 12.072 32.832V22.68H15.216V33.072C15.216 34.832 14.608 36.304 13.392 37.488C12.192 38.672 10.56 39.264 8.496 39.264C6.464 39.264 4.848 38.672 3.648 37.488C2.464 36.304 1.872 34.832 1.872 33.072V22.68H5.016ZM21.1654 28.608C21.6934 28.08 22.3494 27.664 23.1334 27.36C23.9334 27.056 24.6454 26.904 25.2694 26.904C26.8534 26.904 27.9734 27.368 28.6294 28.296C29.3014 29.224 29.6374 30.36 29.6374 31.704V39H26.5174V31.848C26.5174 31.112 26.3414 30.552 25.9894 30.168C25.6374 29.768 25.1254 29.568 24.4534 29.568C24.0054 29.568 23.5334 29.688 23.0374 29.928C22.5574 30.152 22.1174 30.416 21.7174 30.72V39H18.5974V27.36H20.2294L21.1654 28.608ZM38.1593 29.568C37.0713 29.568 36.3113 29.952 35.8793 30.72C35.4633 31.488 35.2553 32.28 35.2553 33.096C35.2553 34.008 35.4473 34.824 35.8313 35.544C36.2153 36.264 36.9913 36.624 38.1593 36.624C38.5273 36.624 38.9113 36.544 39.3113 36.384C39.7273 36.208 40.1113 36.008 40.4633 35.784V30.408C40.1113 30.168 39.7273 29.968 39.3113 29.808C38.9113 29.648 38.5273 29.568 38.1593 29.568ZM43.6073 22.056V39H41.9753L41.1113 37.872C40.5833 38.32 39.9593 38.672 39.2393 38.928C38.5353 39.168 37.8953 39.288 37.3193 39.288C35.6233 39.288 34.3193 38.696 33.4073 37.512C32.4953 36.328 32.0393 34.856 32.0393 33.096C32.0393 31.336 32.5193 29.864 33.4793 28.68C34.4553 27.496 35.7833 26.904 37.4633 26.904C37.8953 26.904 38.3833 26.984 38.9273 27.144C39.4713 27.288 39.9833 27.496 40.4633 27.768V22.32L43.6073 22.056ZM52.7464 39.288C50.7304 39.288 49.1384 38.736 47.9704 37.632C46.8184 36.528 46.2424 35.048 46.2424 33.192C46.2424 31.336 46.7624 29.848 47.8024 28.728C48.8584 27.608 50.2904 27.048 52.0984 27.048C53.9224 27.048 55.2584 27.656 56.1064 28.872C56.9704 30.072 57.4024 31.496 57.4024 33.144V34.104H49.5544C49.6984 34.872 50.0504 35.488 50.6104 35.952C51.1704 36.4 51.9064 36.624 52.8184 36.624C53.3464 36.624 53.8184 36.56 54.2344 36.432C54.6664 36.288 55.1624 36.088 55.7224 35.832L56.6344 38.088C56.0904 38.504 55.4264 38.808 54.6424 39C53.8744 39.192 53.2424 39.288 52.7464 39.288ZM54.4504 32.016C54.2904 31.232 54.0024 30.656 53.5864 30.288C53.1704 29.904 52.6504 29.712 52.0264 29.712C51.3864 29.712 50.8504 29.912 50.4184 30.312C49.9864 30.696 49.7064 31.264 49.5784 32.016H54.4504ZM66.1845 27.36L66.8085 29.856C66.2805 29.856 65.6645 30.008 64.9605 30.312C64.2725 30.616 63.5925 31.064 62.9205 31.656V39H59.8005V27.36H61.4325L62.4645 29.064C62.9445 28.648 63.5285 28.264 64.2165 27.912C64.9045 27.544 65.5605 27.36 66.1845 27.36ZM79.0341 25.632C78.2661 25.392 77.6581 25.224 77.2101 25.128C76.7621 25.016 76.2181 24.96 75.5781 24.96C74.2821 24.96 73.2821 25.488 72.5781 26.544C71.8741 27.6 71.5221 29.048 71.5221 30.888C71.5221 32.472 71.8181 33.84 72.4101 34.992C73.0021 36.144 73.9941 36.72 75.3861 36.72C76.0741 36.72 76.7141 36.648 77.3061 36.504C77.9141 36.36 78.4661 36.184 78.9621 35.976L80.1381 38.28C79.5141 38.6 78.7621 38.856 77.8821 39.048C77.0021 39.24 76.2261 39.336 75.5541 39.336C73.0101 39.336 71.1621 38.52 70.0101 36.888C68.8581 35.256 68.2821 33.264 68.2821 30.912C68.2821 28.4 68.9141 26.344 70.1781 24.744C71.4581 23.144 73.2901 22.344 75.6741 22.344C76.1541 22.344 76.8181 22.424 77.6661 22.584C78.5141 22.744 79.2901 23.016 79.9941 23.4L79.0341 25.632ZM88.0046 39.288C86.1646 39.288 84.7246 38.736 83.6846 37.632C82.6606 36.512 82.1486 35.016 82.1486 33.144C82.1486 31.288 82.6846 29.808 83.7566 28.704C84.8446 27.6 86.3246 27.048 88.1966 27.048C90.1326 27.048 91.6286 27.624 92.6846 28.776C93.7566 29.912 94.2926 31.408 94.2926 33.264C94.2926 35.12 93.7166 36.592 92.5646 37.68C91.4126 38.752 89.8926 39.288 88.0046 39.288ZM91.0766 33.264C91.0766 32.16 90.8286 31.296 90.3326 30.672C89.8526 30.032 89.1646 29.712 88.2686 29.712C87.3566 29.712 86.6446 29.992 86.1326 30.552C85.6206 31.112 85.3646 31.968 85.3646 33.12C85.3646 34.272 85.5806 35.144 86.0126 35.736C86.4606 36.328 87.1406 36.624 88.0526 36.624C88.9486 36.624 89.6766 36.36 90.2366 35.832C90.7966 35.288 91.0766 34.432 91.0766 33.264ZM99.9049 39L95.4409 27.792L98.6569 27.36L101.345 34.416L103.889 27.36H107.177L102.593 39H99.9049ZM114.809 39.288C112.793 39.288 111.201 38.736 110.033 37.632C108.881 36.528 108.305 35.048 108.305 33.192C108.305 31.336 108.825 29.848 109.865 28.728C110.921 27.608 112.353 27.048 114.161 27.048C115.985 27.048 117.321 27.656 118.169 28.872C119.033 30.072 119.465 31.496 119.465 33.144V34.104H111.617C111.761 34.872 112.113 35.488 112.673 35.952C113.233 36.4 113.969 36.624 114.881 36.624C115.409 36.624 115.881 36.56 116.297 36.432C116.729 36.288 117.225 36.088 117.785 35.832L118.697 38.088C118.153 38.504 117.489 38.808 116.705 39C115.937 39.192 115.305 39.288 114.809 39.288ZM116.513 32.016C116.353 31.232 116.065 30.656 115.649 30.288C115.233 29.904 114.713 29.712 114.089 29.712C113.449 29.712 112.913 29.912 112.481 30.312C112.049 30.696 111.769 31.264 111.641 32.016H116.513ZM128.247 27.36L128.871 29.856C128.343 29.856 127.727 30.008 127.023 30.312C126.335 30.616 125.655 31.064 124.983 31.656V39H121.863V27.36H123.495L124.527 29.064C125.007 28.648 125.591 28.264 126.279 27.912C126.967 27.544 127.623 27.36 128.247 27.36Z" fill="white"/>
<path d="M4.043 12.182C3.809 12.182 3.54467 12.1733 3.25 12.156C2.964 12.1473 2.68233 12.13 2.405 12.104C2.12767 12.0867 1.88067 12.065 1.664 12.039C1.456 12.0217 1.313 12.0087 1.235 12V2.913C1.313 2.90433 1.456 2.89133 1.664 2.874C1.88067 2.85667 2.13633 2.83933 2.431 2.822C2.72567 2.796 3.02467 2.77867 3.328 2.77C3.64 2.75267 3.926 2.744 4.186 2.744C4.90533 2.744 5.49033 2.86533 5.941 3.108C6.40033 3.35067 6.75133 3.68867 6.994 4.122C7.23667 4.54667 7.40567 5.03633 7.501 5.591C7.59633 6.14567 7.644 6.73067 7.644 7.346C7.644 8.55067 7.488 9.50833 7.176 10.219C6.87267 10.921 6.448 11.4237 5.902 11.727C5.36467 12.0303 4.745 12.182 4.043 12.182ZM4.017 10.869C4.407 10.869 4.70167 10.8387 4.901 10.778C5.109 10.7173 5.26067 10.6437 5.356 10.557C5.46867 10.4443 5.57267 10.271 5.668 10.037C5.772 9.803 5.85433 9.465 5.915 9.023C5.98433 8.581 6.019 8.00033 6.019 7.281C6.019 6.54433 5.967 5.90733 5.863 5.37C5.76767 4.83267 5.60733 4.473 5.382 4.291C5.31267 4.23033 5.19133 4.17833 5.018 4.135C4.84467 4.083 4.576 4.057 4.212 4.057C3.83067 4.057 3.50567 4.07 3.237 4.096C2.96833 4.122 2.73 4.148 2.522 4.174L2.756 3.459V11.441L2.509 10.726C2.72567 10.752 2.94233 10.7823 3.159 10.817C3.38433 10.8517 3.67033 10.869 4.017 10.869ZM12.5111 12.182C11.8697 12.182 11.3021 12.0563 10.8081 11.805C10.3227 11.545 9.94141 11.1203 9.66408 10.531C9.39541 9.94167 9.26108 9.16167 9.26108 8.191C9.26108 7.16833 9.40408 6.371 9.69008 5.799C9.97608 5.227 10.3617 4.81967 10.8471 4.577C11.3324 4.33433 11.8784 4.213 12.4851 4.213C13.1004 4.213 13.6204 4.33 14.0451 4.564C14.4784 4.78933 14.8077 5.16633 15.0331 5.695C15.2584 6.22367 15.3711 6.93 15.3711 7.814V8.75H10.1321L10.8211 8.516C10.8037 8.96667 10.8167 9.33933 10.8601 9.634C10.9034 9.92867 10.9641 10.154 11.0421 10.31C11.1287 10.466 11.2154 10.583 11.3021 10.661C11.4061 10.7563 11.5361 10.83 11.6921 10.882C11.8481 10.9253 12.0431 10.947 12.2771 10.947C12.5197 10.947 12.7711 10.9253 13.0311 10.882C13.2997 10.8387 13.5511 10.7867 13.7851 10.726C14.0191 10.6653 14.2271 10.609 14.4091 10.557C14.5911 10.4963 14.7254 10.453 14.8121 10.427L15.1891 11.558C15.1111 11.5927 14.9421 11.662 14.6821 11.766C14.4221 11.87 14.1057 11.9653 13.7331 12.052C13.3604 12.1387 12.9531 12.182 12.5111 12.182ZM10.8211 8.009L10.1321 7.632L14.5131 7.541L13.8371 7.944C13.8371 7.41533 13.8197 6.969 13.7851 6.605C13.7591 6.241 13.6854 5.968 13.5641 5.786C13.5034 5.708 13.4037 5.63433 13.2651 5.565C13.1351 5.487 12.8881 5.448 12.5241 5.448C12.1341 5.448 11.8394 5.49133 11.6401 5.578C11.4494 5.656 11.3021 5.76 11.1981 5.89C10.9121 6.228 10.7864 6.93433 10.8211 8.009ZM19.5164 12.169C19.161 12.169 18.8187 12.1343 18.4894 12.065C18.16 11.9957 17.861 11.9177 17.5924 11.831C17.3324 11.7357 17.1244 11.6533 16.9684 11.584C16.821 11.5147 16.7474 11.48 16.7474 11.48L17.1244 10.271C17.1244 10.271 17.198 10.3013 17.3454 10.362C17.5014 10.4227 17.705 10.5007 17.9564 10.596C18.2164 10.6827 18.4937 10.7607 18.7884 10.83C19.0917 10.8907 19.3864 10.921 19.6724 10.921C19.837 10.921 19.98 10.908 20.1014 10.882C20.2227 10.8473 20.318 10.7997 20.3874 10.739C20.474 10.6697 20.5477 10.5657 20.6084 10.427C20.669 10.2883 20.6994 10.128 20.6994 9.946C20.6994 9.65133 20.617 9.426 20.4524 9.27C20.2964 9.10533 20.0884 8.97967 19.8284 8.893C19.577 8.79767 19.2997 8.711 18.9964 8.633C18.7364 8.555 18.4764 8.46833 18.2164 8.373C17.9564 8.27767 17.718 8.152 17.5014 7.996C17.2847 7.84 17.1114 7.63633 16.9814 7.385C16.8514 7.125 16.7864 6.79133 16.7864 6.384C16.7864 5.734 16.9944 5.214 17.4104 4.824C17.8264 4.42533 18.5067 4.226 19.4514 4.226C19.7894 4.226 20.1144 4.252 20.4264 4.304C20.7384 4.34733 21.0157 4.39933 21.2584 4.46C21.501 4.512 21.683 4.55967 21.8044 4.603L21.5834 5.799C21.5834 5.799 21.514 5.78167 21.3754 5.747C21.2367 5.71233 21.0547 5.67767 20.8294 5.643C20.604 5.59967 20.3527 5.56067 20.0754 5.526C19.8067 5.49133 19.538 5.474 19.2694 5.474C19.0267 5.474 18.8447 5.487 18.7234 5.513C18.602 5.539 18.5067 5.578 18.4374 5.63C18.3854 5.67333 18.3377 5.747 18.2944 5.851C18.251 5.94633 18.2294 6.06767 18.2294 6.215C18.2294 6.49233 18.316 6.709 18.4894 6.865C18.6627 7.021 18.888 7.14233 19.1654 7.229C19.4427 7.31567 19.733 7.40667 20.0364 7.502C20.2964 7.57133 20.5477 7.65367 20.7904 7.749C21.0417 7.84433 21.2714 7.97 21.4794 8.126C21.6874 8.282 21.852 8.49 21.9734 8.75C22.0947 9.00133 22.1554 9.32633 22.1554 9.725C22.1554 10.453 21.9257 11.0423 21.4664 11.493C21.0157 11.9437 20.3657 12.169 19.5164 12.169ZM28.3657 12L25.3237 7.918L28.1187 4.395H29.9777L26.9357 7.84V7.905L30.2507 12H28.3657ZM23.8417 12L23.8937 7.827L23.8417 2.159H25.3367V12H23.8417ZM34.3679 12L34.6799 2.913H36.7339L38.5409 8.503H38.6189L40.4519 2.913H42.4799L42.8049 12H41.2969L41.2709 4.551H41.1799L39.4249 9.972H37.7349L35.9929 4.551H35.9019L35.8759 12H34.3679ZM46.7719 12.169C46.3645 12.169 46.0005 12.0737 45.6799 11.883C45.3592 11.6923 45.1079 11.415 44.9259 11.051C44.7439 10.687 44.6529 10.245 44.6529 9.725C44.6529 9.101 44.7829 8.61133 45.0429 8.256C45.3115 7.90067 45.6842 7.64933 46.1609 7.502C46.6462 7.346 47.2139 7.268 47.8639 7.268H49.0599C49.0599 6.86067 49.0425 6.53567 49.0079 6.293C48.9819 6.04167 48.9299 5.85533 48.8519 5.734C48.7825 5.64733 48.6829 5.58233 48.5529 5.539C48.4315 5.49567 48.2539 5.474 48.0199 5.474C47.6992 5.474 47.3742 5.50433 47.0449 5.565C46.7155 5.617 46.4122 5.68633 46.1349 5.773C45.8662 5.851 45.6452 5.92033 45.4719 5.981C45.3072 6.033 45.2249 6.059 45.2249 6.059L44.8349 4.941C44.8349 4.941 44.9172 4.90633 45.0819 4.837C45.2552 4.759 45.4849 4.67667 45.7709 4.59C46.0655 4.49467 46.3949 4.41233 46.7589 4.343C47.1229 4.265 47.5085 4.226 47.9159 4.226C48.5745 4.226 49.0945 4.343 49.4759 4.577C49.8659 4.80233 50.1432 5.12733 50.3079 5.552C50.4725 5.968 50.5549 6.462 50.5549 7.034V12H49.5929L49.3979 11.181H49.3199C49.2679 11.2157 49.1639 11.2893 49.0079 11.402C48.8519 11.506 48.6569 11.6187 48.4229 11.74C48.1975 11.8527 47.9419 11.9523 47.6559 12.039C47.3785 12.1257 47.0839 12.169 46.7719 12.169ZM47.1359 10.908C47.4132 10.908 47.6862 10.8647 47.9549 10.778C48.2322 10.6913 48.4705 10.6003 48.6699 10.505C48.8692 10.401 48.9992 10.3273 49.0599 10.284V8.49C48.9992 8.48133 48.8562 8.46833 48.6309 8.451C48.4142 8.425 48.1325 8.412 47.7859 8.412C47.0839 8.412 46.6505 8.48567 46.4859 8.633C46.3992 8.711 46.3299 8.841 46.2779 9.023C46.2259 9.19633 46.1999 9.41733 46.1999 9.686C46.1999 10.1107 46.2692 10.4227 46.4079 10.622C46.5552 10.8127 46.7979 10.908 47.1359 10.908ZM54.9849 12.182C54.5776 12.182 54.2223 12.117 53.9189 11.987C53.6243 11.8483 53.3946 11.5927 53.2299 11.22C53.0739 10.8473 52.9959 10.2927 52.9959 9.556V5.955H52.1249V5.019L53.0609 4.837L53.3469 3.043H54.5039V4.811H56.0379V5.981H54.4909V9.621C54.4909 10.0197 54.5083 10.31 54.5429 10.492C54.5776 10.674 54.6426 10.791 54.7379 10.843C54.8333 10.8863 54.9806 10.908 55.1799 10.908C55.3186 10.908 55.4486 10.9037 55.5699 10.895C55.6999 10.8863 55.8083 10.8777 55.8949 10.869C55.9816 10.8603 56.0249 10.856 56.0249 10.856V12.078C56.0249 12.078 55.9253 12.0953 55.7259 12.13C55.5266 12.1647 55.2796 12.182 54.9849 12.182ZM60.0144 12.169C59.6591 12.169 59.3167 12.1343 58.9874 12.065C58.6581 11.9957 58.3591 11.9177 58.0904 11.831C57.8304 11.7357 57.6224 11.6533 57.4664 11.584C57.3191 11.5147 57.2454 11.48 57.2454 11.48L57.6224 10.271C57.6224 10.271 57.6961 10.3013 57.8434 10.362C57.9994 10.4227 58.2031 10.5007 58.4544 10.596C58.7144 10.6827 58.9917 10.7607 59.2864 10.83C59.5897 10.8907 59.8844 10.921 60.1704 10.921C60.3351 10.921 60.4781 10.908 60.5994 10.882C60.7207 10.8473 60.8161 10.7997 60.8854 10.739C60.9721 10.6697 61.0457 10.5657 61.1064 10.427C61.1671 10.2883 61.1974 10.128 61.1974 9.946C61.1974 9.65133 61.1151 9.426 60.9504 9.27C60.7944 9.10533 60.5864 8.97967 60.3264 8.893C60.0751 8.79767 59.7977 8.711 59.4944 8.633C59.2344 8.555 58.9744 8.46833 58.7144 8.373C58.4544 8.27767 58.2161 8.152 57.9994 7.996C57.7827 7.84 57.6094 7.63633 57.4794 7.385C57.3494 7.125 57.2844 6.79133 57.2844 6.384C57.2844 5.734 57.4924 5.214 57.9084 4.824C58.3244 4.42533 59.0047 4.226 59.9494 4.226C60.2874 4.226 60.6124 4.252 60.9244 4.304C61.2364 4.34733 61.5137 4.39933 61.7564 4.46C61.9991 4.512 62.1811 4.55967 62.3024 4.603L62.0814 5.799C62.0814 5.799 62.0121 5.78167 61.8734 5.747C61.7347 5.71233 61.5527 5.67767 61.3274 5.643C61.1021 5.59967 60.8507 5.56067 60.5734 5.526C60.3047 5.49133 60.0361 5.474 59.7674 5.474C59.5247 5.474 59.3427 5.487 59.2214 5.513C59.1001 5.539 59.0047 5.578 58.9354 5.63C58.8834 5.67333 58.8357 5.747 58.7924 5.851C58.7491 5.94633 58.7274 6.06767 58.7274 6.215C58.7274 6.49233 58.8141 6.709 58.9874 6.865C59.1607 7.021 59.3861 7.14233 59.6634 7.229C59.9407 7.31567 60.2311 7.40667 60.5344 7.502C60.7944 7.57133 61.0457 7.65367 61.2884 7.749C61.5397 7.84433 61.7694 7.97 61.9774 8.126C62.1854 8.282 62.3501 8.49 62.4714 8.75C62.5927 9.00133 62.6534 9.32633 62.6534 9.725C62.6534 10.453 62.4237 11.0423 61.9644 11.493C61.5137 11.9437 60.8637 12.169 60.0144 12.169ZM67.7077 12L67.7727 7.736L67.7207 2.926C67.7987 2.91733 67.9547 2.90433 68.1887 2.887C68.4227 2.861 68.6957 2.83933 69.0077 2.822C69.3197 2.80467 69.636 2.78733 69.9567 2.77C70.286 2.75267 70.585 2.744 70.8537 2.744C71.495 2.744 72.0497 2.83933 72.5177 3.03C72.9943 3.22067 73.3583 3.52833 73.6097 3.953C73.861 4.37767 73.9867 4.94967 73.9867 5.669C73.9867 6.40567 73.8263 6.99933 73.5057 7.45C73.185 7.892 72.717 8.19533 72.1017 8.36V8.425L74.1167 12H72.3877L70.6717 8.568L69.2417 8.516V12H67.7077ZM70.9447 7.333C71.534 7.333 71.924 7.19867 72.1147 6.93C72.3053 6.65267 72.4007 6.228 72.4007 5.656C72.4007 5.17067 72.3617 4.811 72.2837 4.577C72.2057 4.343 72.1017 4.187 71.9717 4.109C71.885 4.04833 71.7507 4.005 71.5687 3.979C71.3953 3.953 71.196 3.94 70.9707 3.94C70.6153 3.94 70.286 3.953 69.9827 3.979C69.688 4.005 69.441 4.031 69.2417 4.057L69.2287 7.216C69.506 7.25067 69.7963 7.281 70.0997 7.307C70.403 7.32433 70.6847 7.333 70.9447 7.333ZM78.8949 12.182C78.2535 12.182 77.6859 12.0563 77.1919 11.805C76.7065 11.545 76.3252 11.1203 76.0479 10.531C75.7792 9.94167 75.6449 9.16167 75.6449 8.191C75.6449 7.16833 75.7879 6.371 76.0739 5.799C76.3599 5.227 76.7455 4.81967 77.2309 4.577C77.7162 4.33433 78.2622 4.213 78.8689 4.213C79.4842 4.213 80.0042 4.33 80.4289 4.564C80.8622 4.78933 81.1915 5.16633 81.4169 5.695C81.6422 6.22367 81.7549 6.93 81.7549 7.814V8.75H76.5159L77.2049 8.516C77.1875 8.96667 77.2005 9.33933 77.2439 9.634C77.2872 9.92867 77.3479 10.154 77.4259 10.31C77.5125 10.466 77.5992 10.583 77.6859 10.661C77.7899 10.7563 77.9199 10.83 78.0759 10.882C78.2319 10.9253 78.4269 10.947 78.6609 10.947C78.9035 10.947 79.1549 10.9253 79.4149 10.882C79.6835 10.8387 79.9349 10.7867 80.1689 10.726C80.4029 10.6653 80.6109 10.609 80.7929 10.557C80.9749 10.4963 81.1092 10.453 81.1959 10.427L81.5729 11.558C81.4949 11.5927 81.3259 11.662 81.0659 11.766C80.8059 11.87 80.4895 11.9653 80.1169 12.052C79.7442 12.1387 79.3369 12.182 78.8949 12.182ZM77.2049 8.009L76.5159 7.632L80.8969 7.541L80.2209 7.944C80.2209 7.41533 80.2035 6.969 80.1689 6.605C80.1429 6.241 80.0692 5.968 79.9479 5.786C79.8872 5.708 79.7875 5.63433 79.6489 5.565C79.5189 5.487 79.2719 5.448 78.9079 5.448C78.5179 5.448 78.2232 5.49133 78.0239 5.578C77.8332 5.656 77.6859 5.76 77.5819 5.89C77.2959 6.228 77.1702 6.93433 77.2049 8.009ZM85.7831 12.169C85.3065 12.169 84.8775 12.0347 84.4961 11.766C84.1235 11.4887 83.8245 11.064 83.5991 10.492C83.3825 9.92 83.2741 9.18767 83.2741 8.295C83.2741 7.463 83.3565 6.78267 83.5211 6.254C83.6945 5.72533 83.9198 5.31367 84.1971 5.019C84.4831 4.72433 84.7908 4.52067 85.1201 4.408C85.4581 4.28667 85.8005 4.226 86.1471 4.226C86.4071 4.226 86.6455 4.24333 86.8621 4.278C87.0875 4.31267 87.2781 4.35167 87.4341 4.395C87.5901 4.42967 87.6941 4.46 87.7461 4.486V2.159H89.2411V12H88.2661L88.0971 11.233H88.0191C87.8805 11.337 87.7028 11.4627 87.4861 11.61C87.2695 11.7573 87.0181 11.8873 86.7321 12C86.4461 12.1127 86.1298 12.169 85.7831 12.169ZM85.9781 10.908C86.1341 10.908 86.3031 10.8863 86.4851 10.843C86.6671 10.791 86.8448 10.7303 87.0181 10.661C87.1915 10.5917 87.3431 10.5267 87.4731 10.466C87.6031 10.3967 87.6941 10.3447 87.7461 10.31V5.812C87.6855 5.786 87.5728 5.75133 87.4081 5.708C87.2435 5.656 87.0485 5.60833 86.8231 5.565C86.5978 5.52167 86.3595 5.5 86.1081 5.5C85.6921 5.5 85.4061 5.591 85.2501 5.773C85.1808 5.851 85.1115 5.98533 85.0421 6.176C84.9815 6.358 84.9295 6.62233 84.8861 6.969C84.8428 7.31567 84.8211 7.775 84.8211 8.347C84.8211 8.98833 84.8471 9.47367 84.8991 9.803C84.9598 10.1323 85.0291 10.362 85.1071 10.492C85.1938 10.622 85.2588 10.7087 85.3021 10.752C85.3715 10.8127 85.4668 10.856 85.5881 10.882C85.7095 10.8993 85.8395 10.908 85.9781 10.908ZM94.3705 12.182C93.7291 12.182 93.1615 12.0563 92.6675 11.805C92.1821 11.545 91.8008 11.1203 91.5235 10.531C91.2548 9.94167 91.1205 9.16167 91.1205 8.191C91.1205 7.16833 91.2635 6.371 91.5495 5.799C91.8355 5.227 92.2211 4.81967 92.7065 4.577C93.1918 4.33433 93.7378 4.213 94.3445 4.213C94.9598 4.213 95.4798 4.33 95.9045 4.564C96.3378 4.78933 96.6671 5.16633 96.8925 5.695C97.1178 6.22367 97.2305 6.93 97.2305 7.814V8.75H91.9915L92.6805 8.516C92.6631 8.96667 92.6761 9.33933 92.7195 9.634C92.7628 9.92867 92.8235 10.154 92.9015 10.31C92.9881 10.466 93.0748 10.583 93.1615 10.661C93.2655 10.7563 93.3955 10.83 93.5515 10.882C93.7075 10.9253 93.9025 10.947 94.1365 10.947C94.3791 10.947 94.6305 10.9253 94.8905 10.882C95.1591 10.8387 95.4105 10.7867 95.6445 10.726C95.8785 10.6653 96.0865 10.609 96.2685 10.557C96.4505 10.4963 96.5848 10.453 96.6715 10.427L97.0485 11.558C96.9705 11.5927 96.8015 11.662 96.5415 11.766C96.2815 11.87 95.9651 11.9653 95.5925 12.052C95.2198 12.1387 94.8125 12.182 94.3705 12.182ZM92.6805 8.009L91.9915 7.632L96.3725 7.541L95.6965 7.944C95.6965 7.41533 95.6791 6.969 95.6445 6.605C95.6185 6.241 95.5448 5.968 95.4235 5.786C95.3628 5.708 95.2631 5.63433 95.1245 5.565C94.9945 5.487 94.7475 5.448 94.3835 5.448C93.9935 5.448 93.6988 5.49133 93.4995 5.578C93.3088 5.656 93.1615 5.76 93.0575 5.89C92.7715 6.228 92.6458 6.93433 92.6805 8.009ZM99.3477 12V5.942H98.4897V5.019L99.3607 4.837C99.3954 4.12633 99.5167 3.56733 99.7247 3.16C99.9327 2.744 100.219 2.445 100.583 2.263C100.955 2.081 101.38 1.99 101.857 1.99C101.969 1.99 102.099 1.99433 102.247 2.003C102.394 2.01167 102.52 2.02033 102.624 2.029C102.728 2.029 102.78 2.029 102.78 2.029L102.676 3.251C102.676 3.251 102.619 3.251 102.507 3.251C102.394 3.24233 102.26 3.23367 102.104 3.225C101.948 3.21633 101.809 3.212 101.688 3.212C101.48 3.212 101.315 3.251 101.194 3.329C101.072 3.39833 100.986 3.54567 100.934 3.771C100.882 3.99633 100.851 4.343 100.843 4.811H102.533V5.981H100.856V12H99.3477ZM103.838 12V4.395H105.346V12H103.838ZM103.76 3.225V1.977H105.437V3.225H103.76ZM107.735 12V4.395H108.71L108.892 5.149H108.957C109.078 5.07967 109.234 4.993 109.425 4.889C109.615 4.785 109.832 4.681 110.075 4.577C110.317 4.473 110.577 4.39067 110.855 4.33C111.132 4.26067 111.414 4.226 111.7 4.226C112.202 4.226 112.584 4.34733 112.844 4.59C113.112 4.83267 113.294 5.162 113.39 5.578C113.485 5.994 113.533 6.462 113.533 6.982V12H112.025V7.359C112.025 6.917 112.016 6.58333 111.999 6.358C111.981 6.124 111.929 5.94633 111.843 5.825C111.782 5.72967 111.695 5.669 111.583 5.643C111.47 5.60833 111.349 5.591 111.219 5.591C110.967 5.591 110.707 5.63 110.439 5.708C110.179 5.786 109.94 5.87267 109.724 5.968C109.507 6.06333 109.347 6.14567 109.243 6.215V12H107.735ZM118.606 12.182C117.964 12.182 117.397 12.0563 116.903 11.805C116.417 11.545 116.036 11.1203 115.759 10.531C115.49 9.94167 115.356 9.16167 115.356 8.191C115.356 7.16833 115.499 6.371 115.785 5.799C116.071 5.227 116.456 4.81967 116.942 4.577C117.427 4.33433 117.973 4.213 118.58 4.213C119.195 4.213 119.715 4.33 120.14 4.564C120.573 4.78933 120.902 5.16633 121.128 5.695C121.353 6.22367 121.466 6.93 121.466 7.814V8.75H116.227L116.916 8.516C116.898 8.96667 116.911 9.33933 116.955 9.634C116.998 9.92867 117.059 10.154 117.137 10.31C117.223 10.466 117.31 10.583 117.397 10.661C117.501 10.7563 117.631 10.83 117.787 10.882C117.943 10.9253 118.138 10.947 118.372 10.947C118.614 10.947 118.866 10.9253 119.126 10.882C119.394 10.8387 119.646 10.7867 119.88 10.726C120.114 10.6653 120.322 10.609 120.504 10.557C120.686 10.4963 120.82 10.453 120.907 10.427L121.284 11.558C121.206 11.5927 121.037 11.662 120.777 11.766C120.517 11.87 120.2 11.9653 119.828 12.052C119.455 12.1387 119.048 12.182 118.606 12.182ZM116.916 8.009L116.227 7.632L120.608 7.541L119.932 7.944C119.932 7.41533 119.914 6.969 119.88 6.605C119.854 6.241 119.78 5.968 119.659 5.786C119.598 5.708 119.498 5.63433 119.36 5.565C119.23 5.487 118.983 5.448 118.619 5.448C118.229 5.448 117.934 5.49133 117.735 5.578C117.544 5.656 117.397 5.76 117.293 5.89C117.007 6.228 116.881 6.93433 116.916 8.009ZM125.494 12.169C125.017 12.169 124.588 12.0347 124.207 11.766C123.834 11.4887 123.535 11.064 123.31 10.492C123.093 9.92 122.985 9.18767 122.985 8.295C122.985 7.463 123.067 6.78267 123.232 6.254C123.405 5.72533 123.631 5.31367 123.908 5.019C124.194 4.72433 124.502 4.52067 124.831 4.408C125.169 4.28667 125.511 4.226 125.858 4.226C126.118 4.226 126.356 4.24333 126.573 4.278C126.798 4.31267 126.989 4.35167 127.145 4.395C127.301 4.42967 127.405 4.46 127.457 4.486V2.159H128.952V12H127.977L127.808 11.233H127.73C127.591 11.337 127.414 11.4627 127.197 11.61C126.98 11.7573 126.729 11.8873 126.443 12C126.157 12.1127 125.841 12.169 125.494 12.169ZM125.689 10.908C125.845 10.908 126.014 10.8863 126.196 10.843C126.378 10.791 126.556 10.7303 126.729 10.661C126.902 10.5917 127.054 10.5267 127.184 10.466C127.314 10.3967 127.405 10.3447 127.457 10.31V5.812C127.396 5.786 127.284 5.75133 127.119 5.708C126.954 5.656 126.759 5.60833 126.534 5.565C126.309 5.52167 126.07 5.5 125.819 5.5C125.403 5.5 125.117 5.591 124.961 5.773C124.892 5.851 124.822 5.98533 124.753 6.176C124.692 6.358 124.64 6.62233 124.597 6.969C124.554 7.31567 124.532 7.775 124.532 8.347C124.532 8.98833 124.558 9.47367 124.61 9.803C124.671 10.1323 124.74 10.362 124.818 10.492C124.905 10.622 124.97 10.7087 125.013 10.752C125.082 10.8127 125.178 10.856 125.299 10.882C125.42 10.8993 125.55 10.908 125.689 10.908Z" fill="white"/>
</svg>
