<svg width="246" height="43" viewBox="0 0 246 43" fill="none" xmlns="http://www.w3.org/2000/svg">
<path d="M5.016 14.68V24.832C5.016 26.192 5.344 27.184 6 27.808C6.656 28.416 7.504 28.72 8.544 28.72C9.6 28.72 10.448 28.4 11.088 27.76C11.744 27.12 12.072 26.144 12.072 24.832V14.68H15.216V25.072C15.216 26.832 14.608 28.304 13.392 29.488C12.192 30.672 10.56 31.264 8.496 31.264C6.464 31.264 4.848 30.672 3.648 29.488C2.464 28.304 1.872 26.832 1.872 25.072V14.68H5.016ZM21.1654 20.608C21.6934 20.08 22.3494 19.664 23.1334 19.36C23.9334 19.056 24.6454 18.904 25.2694 18.904C26.8534 18.904 27.9734 19.368 28.6294 20.296C29.3014 21.224 29.6374 22.36 29.6374 23.704V31H26.5174V23.848C26.5174 23.112 26.3414 22.552 25.9894 22.168C25.6374 21.768 25.1254 21.568 24.4534 21.568C24.0054 21.568 23.5334 21.688 23.0374 21.928C22.5574 22.152 22.1174 22.416 21.7174 22.72V31H18.5974V19.36H20.2294L21.1654 20.608ZM38.1593 21.568C37.0713 21.568 36.3113 21.952 35.8793 22.72C35.4633 23.488 35.2553 24.28 35.2553 25.096C35.2553 26.008 35.4473 26.824 35.8313 27.544C36.2153 28.264 36.9913 28.624 38.1593 28.624C38.5273 28.624 38.9113 28.544 39.3113 28.384C39.7273 28.208 40.1113 28.008 40.4633 27.784V22.408C40.1113 22.168 39.7273 21.968 39.3113 21.808C38.9113 21.648 38.5273 21.568 38.1593 21.568ZM43.6073 14.056V31H41.9753L41.1113 29.872C40.5833 30.32 39.9593 30.672 39.2393 30.928C38.5353 31.168 37.8953 31.288 37.3193 31.288C35.6233 31.288 34.3193 30.696 33.4073 29.512C32.4953 28.328 32.0393 26.856 32.0393 25.096C32.0393 23.336 32.5193 21.864 33.4793 20.68C34.4553 19.496 35.7833 18.904 37.4633 18.904C37.8953 18.904 38.3833 18.984 38.9273 19.144C39.4713 19.288 39.9833 19.496 40.4633 19.768V14.32L43.6073 14.056ZM52.7464 31.288C50.7304 31.288 49.1384 30.736 47.9704 29.632C46.8184 28.528 46.2424 27.048 46.2424 25.192C46.2424 23.336 46.7624 21.848 47.8024 20.728C48.8584 19.608 50.2904 19.048 52.0984 19.048C53.9224 19.048 55.2584 19.656 56.1064 20.872C56.9704 22.072 57.4024 23.496 57.4024 25.144V26.104H49.5544C49.6984 26.872 50.0504 27.488 50.6104 27.952C51.1704 28.4 51.9064 28.624 52.8184 28.624C53.3464 28.624 53.8184 28.56 54.2344 28.432C54.6664 28.288 55.1624 28.088 55.7224 27.832L56.6344 30.088C56.0904 30.504 55.4264 30.808 54.6424 31C53.8744 31.192 53.2424 31.288 52.7464 31.288ZM54.4504 24.016C54.2904 23.232 54.0024 22.656 53.5864 22.288C53.1704 21.904 52.6504 21.712 52.0264 21.712C51.3864 21.712 50.8504 21.912 50.4184 22.312C49.9864 22.696 49.7064 23.264 49.5784 24.016H54.4504ZM66.1845 19.36L66.8085 21.856C66.2805 21.856 65.6645 22.008 64.9605 22.312C64.2725 22.616 63.5925 23.064 62.9205 23.656V31H59.8005V19.36H61.4325L62.4645 21.064C62.9445 20.648 63.5285 20.264 64.2165 19.912C64.9045 19.544 65.5605 19.36 66.1845 19.36ZM79.0341 17.632C78.2661 17.392 77.6581 17.224 77.2101 17.128C76.7621 17.016 76.2181 16.96 75.5781 16.96C74.2821 16.96 73.2821 17.488 72.5781 18.544C71.8741 19.6 71.5221 21.048 71.5221 22.888C71.5221 24.472 71.8181 25.84 72.4101 26.992C73.0021 28.144 73.9941 28.72 75.3861 28.72C76.0741 28.72 76.7141 28.648 77.3061 28.504C77.9141 28.36 78.4661 28.184 78.9621 27.976L80.1381 30.28C79.5141 30.6 78.7621 30.856 77.8821 31.048C77.0021 31.24 76.2261 31.336 75.5541 31.336C73.0101 31.336 71.1621 30.52 70.0101 28.888C68.8581 27.256 68.2821 25.264 68.2821 22.912C68.2821 20.4 68.9141 18.344 70.1781 16.744C71.4581 15.144 73.2901 14.344 75.6741 14.344C76.1541 14.344 76.8181 14.424 77.6661 14.584C78.5141 14.744 79.2901 15.016 79.9941 15.4L79.0341 17.632ZM88.0046 31.288C86.1646 31.288 84.7246 30.736 83.6846 29.632C82.6606 28.512 82.1486 27.016 82.1486 25.144C82.1486 23.288 82.6846 21.808 83.7566 20.704C84.8446 19.6 86.3246 19.048 88.1966 19.048C90.1326 19.048 91.6286 19.624 92.6846 20.776C93.7566 21.912 94.2926 23.408 94.2926 25.264C94.2926 27.12 93.7166 28.592 92.5646 29.68C91.4126 30.752 89.8926 31.288 88.0046 31.288ZM91.0766 25.264C91.0766 24.16 90.8286 23.296 90.3326 22.672C89.8526 22.032 89.1646 21.712 88.2686 21.712C87.3566 21.712 86.6446 21.992 86.1326 22.552C85.6206 23.112 85.3646 23.968 85.3646 25.12C85.3646 26.272 85.5806 27.144 86.0126 27.736C86.4606 28.328 87.1406 28.624 88.0526 28.624C88.9486 28.624 89.6766 28.36 90.2366 27.832C90.7966 27.288 91.0766 26.432 91.0766 25.264ZM99.9049 31L95.4409 19.792L98.6569 19.36L101.345 26.416L103.889 19.36H107.177L102.593 31H99.9049ZM114.809 31.288C112.793 31.288 111.201 30.736 110.033 29.632C108.881 28.528 108.305 27.048 108.305 25.192C108.305 23.336 108.825 21.848 109.865 20.728C110.921 19.608 112.353 19.048 114.161 19.048C115.985 19.048 117.321 19.656 118.169 20.872C119.033 22.072 119.465 23.496 119.465 25.144V26.104H111.617C111.761 26.872 112.113 27.488 112.673 27.952C113.233 28.4 113.969 28.624 114.881 28.624C115.409 28.624 115.881 28.56 116.297 28.432C116.729 28.288 117.225 28.088 117.785 27.832L118.697 30.088C118.153 30.504 117.489 30.808 116.705 31C115.937 31.192 115.305 31.288 114.809 31.288ZM116.513 24.016C116.353 23.232 116.065 22.656 115.649 22.288C115.233 21.904 114.713 21.712 114.089 21.712C113.449 21.712 112.913 21.912 112.481 22.312C112.049 22.696 111.769 23.264 111.641 24.016H116.513ZM128.247 19.36L128.871 21.856C128.343 21.856 127.727 22.008 127.023 22.312C126.335 22.616 125.655 23.064 124.983 23.656V31H121.863V19.36H123.495L124.527 21.064C125.007 20.648 125.591 20.264 126.279 19.912C126.967 19.544 127.623 19.36 128.247 19.36Z" fill="white"/>
<path d="M143.994 28.3691L146.549 22.4688H147.381L146.537 24.8301L143.818 31H142.992L143.994 28.3691ZM143.215 22.4688L143.613 28.3633L143.584 31H142.816L142.143 22.4688H143.215ZM148.576 28.2461L150.75 22.4688H151.881L148.547 31H147.727L148.576 28.2461ZM147.469 22.4688L148.143 28.4746L148.312 31H147.545L146.807 24.7305L146.707 22.4688H147.469ZM154.008 31.1172C153.574 31.1094 153.197 31.0234 152.877 30.8594C152.561 30.6914 152.301 30.4668 152.098 30.1855C151.898 29.9004 151.756 29.5762 151.67 29.2129C151.584 28.8496 151.559 28.4688 151.594 28.0703L151.617 27.8184C151.656 27.4121 151.756 27.0137 151.916 26.623C152.076 26.2285 152.289 25.873 152.555 25.5566C152.824 25.2402 153.141 24.9902 153.504 24.8066C153.871 24.6191 154.277 24.5312 154.723 24.543C155.164 24.5508 155.531 24.6445 155.824 24.8242C156.117 25.0039 156.346 25.2422 156.51 25.5391C156.678 25.832 156.787 26.1621 156.838 26.5293C156.889 26.8926 156.893 27.2656 156.85 27.6484L156.785 28.1348H152.186L152.326 27.25L155.836 27.2559L155.854 27.1621C155.893 26.8809 155.877 26.6094 155.807 26.3477C155.736 26.0859 155.607 25.8711 155.42 25.7031C155.236 25.5312 154.988 25.4414 154.676 25.4336C154.352 25.4219 154.07 25.4883 153.832 25.6328C153.594 25.7734 153.395 25.9648 153.234 26.207C153.074 26.4453 152.947 26.707 152.854 26.9922C152.764 27.2734 152.701 27.5488 152.666 27.8184L152.643 28.0645C152.619 28.3145 152.627 28.5664 152.666 28.8203C152.705 29.0742 152.779 29.3066 152.889 29.5176C153.002 29.7246 153.158 29.8945 153.357 30.0273C153.557 30.1562 153.803 30.2246 154.096 30.2324C154.451 30.2402 154.77 30.1641 155.051 30.0039C155.336 29.8398 155.596 29.6328 155.83 29.3828L156.434 29.8984C156.25 30.168 156.031 30.3945 155.777 30.5781C155.523 30.7617 155.246 30.8984 154.945 30.9883C154.645 31.0781 154.332 31.1211 154.008 31.1172ZM165.533 24.6602H166.506L165.445 30.8594C165.371 31.3867 165.201 31.8516 164.936 32.2539C164.674 32.6562 164.33 32.9688 163.904 33.1914C163.482 33.4141 163 33.5195 162.457 33.5078C162.172 33.5 161.893 33.4512 161.619 33.3613C161.346 33.2715 161.094 33.1445 160.863 32.9805C160.633 32.8164 160.439 32.6152 160.283 32.377L160.893 31.7441C161.076 32.0059 161.293 32.2129 161.543 32.3652C161.797 32.5215 162.086 32.6055 162.41 32.6172C162.766 32.625 163.08 32.5586 163.354 32.418C163.631 32.2812 163.855 32.084 164.027 31.8262C164.203 31.5684 164.318 31.2656 164.373 30.918L165.205 26.002L165.533 24.6602ZM160.746 27.9473L160.764 27.8184C160.811 27.4277 160.902 27.0371 161.039 26.6465C161.18 26.2559 161.367 25.9004 161.602 25.5801C161.836 25.2559 162.123 25 162.463 24.8125C162.803 24.6211 163.199 24.5293 163.652 24.5371C164.062 24.5488 164.404 24.6445 164.678 24.8242C164.951 25.0039 165.166 25.2422 165.322 25.5391C165.482 25.832 165.59 26.1543 165.645 26.5059C165.703 26.8574 165.721 27.2109 165.697 27.5664L165.633 28.1055C165.566 28.4844 165.457 28.8555 165.305 29.2188C165.152 29.582 164.955 29.9102 164.713 30.2031C164.471 30.4922 164.182 30.7207 163.846 30.8887C163.514 31.0566 163.135 31.1348 162.709 31.123C162.291 31.1074 161.945 31 161.672 30.8008C161.402 30.6016 161.193 30.3457 161.045 30.0332C160.896 29.7168 160.801 29.377 160.758 29.0137C160.715 28.6465 160.711 28.291 160.746 27.9473ZM161.83 27.8125L161.812 27.9414C161.785 28.1758 161.777 28.4219 161.789 28.6797C161.801 28.9375 161.846 29.1816 161.924 29.4121C162.002 29.6387 162.127 29.8262 162.299 29.9746C162.475 30.1191 162.713 30.1953 163.014 30.2031C163.334 30.2148 163.631 30.1445 163.904 29.9922C164.178 29.8398 164.412 29.6367 164.607 29.3828C164.803 29.1289 164.943 28.8535 165.029 28.5566L165.258 27.1328C165.27 26.918 165.244 26.7109 165.182 26.5117C165.119 26.3125 165.025 26.1348 164.9 25.9785C164.779 25.8223 164.631 25.6973 164.455 25.6035C164.279 25.5098 164.08 25.4609 163.857 25.457C163.529 25.4453 163.246 25.5098 163.008 25.6504C162.77 25.7871 162.568 25.9727 162.404 26.207C162.244 26.4414 162.117 26.6992 162.023 26.9805C161.93 27.2617 161.865 27.5391 161.83 27.8125ZM167.268 27.9355L167.285 27.8008C167.332 27.375 167.438 26.9648 167.602 26.5703C167.77 26.1758 167.99 25.8242 168.264 25.5156C168.537 25.207 168.861 24.9648 169.236 24.7891C169.611 24.6133 170.029 24.5312 170.49 24.543C170.936 24.5508 171.316 24.6465 171.633 24.8301C171.953 25.0137 172.211 25.2578 172.406 25.5625C172.605 25.8633 172.744 26.2031 172.822 26.582C172.9 26.9609 172.92 27.3516 172.881 27.7539L172.869 27.8887C172.818 28.3145 172.709 28.7227 172.541 29.1133C172.373 29.5039 172.15 29.8516 171.873 30.1562C171.6 30.4609 171.275 30.7012 170.9 30.877C170.525 31.0488 170.109 31.1289 169.652 31.1172C169.211 31.1094 168.83 31.0156 168.51 30.8359C168.193 30.6523 167.938 30.4102 167.742 30.1094C167.547 29.8086 167.41 29.4707 167.332 29.0957C167.254 28.7207 167.232 28.334 167.268 27.9355ZM168.34 27.8008L168.328 27.9414C168.301 28.1875 168.299 28.4434 168.322 28.709C168.35 28.9746 168.412 29.2207 168.51 29.4473C168.611 29.6738 168.758 29.8594 168.949 30.0039C169.141 30.1484 169.389 30.2246 169.693 30.2324C170.018 30.2402 170.303 30.1777 170.549 30.0449C170.795 29.9082 171.004 29.7246 171.176 29.4941C171.352 29.2637 171.49 29.0078 171.592 28.7266C171.697 28.4453 171.768 28.166 171.803 27.8887L171.814 27.7539C171.842 27.5078 171.842 27.252 171.814 26.9863C171.791 26.7168 171.729 26.4668 171.627 26.2363C171.529 26.002 171.385 25.8125 171.193 25.668C171.002 25.5195 170.754 25.4414 170.449 25.4336C170.125 25.4219 169.838 25.4863 169.588 25.627C169.342 25.7637 169.133 25.9492 168.961 26.1836C168.789 26.418 168.65 26.6777 168.545 26.9629C168.443 27.2441 168.375 27.5234 168.34 27.8008ZM177.322 24.6602L177.176 25.4922H173.842L173.988 24.6602H177.322ZM175.383 23.1191H176.438L175.365 29.4414C175.354 29.5781 175.357 29.7012 175.377 29.8105C175.396 29.9199 175.443 30.0078 175.518 30.0742C175.592 30.1367 175.705 30.1699 175.857 30.1738C175.943 30.1738 176.027 30.168 176.109 30.1562C176.195 30.1406 176.281 30.127 176.367 30.1152L176.291 31.0059C176.166 31.041 176.037 31.0664 175.904 31.082C175.775 31.1016 175.646 31.1094 175.518 31.1055C175.193 31.1016 174.939 31.0195 174.756 30.8594C174.572 30.6992 174.447 30.4922 174.381 30.2383C174.314 29.9844 174.295 29.7129 174.322 29.4238L175.383 23.1191ZM182.25 30.2793L184.922 24.6602H186.094L182.373 31.9844C182.275 32.1914 182.16 32.3906 182.027 32.582C181.898 32.7734 181.75 32.9453 181.582 33.0977C181.418 33.25 181.232 33.3691 181.025 33.4551C180.818 33.541 180.59 33.584 180.34 33.584C180.234 33.5801 180.129 33.5684 180.023 33.5488C179.914 33.5293 179.809 33.5078 179.707 33.4844L179.771 32.5938C179.818 32.6016 179.865 32.6074 179.912 32.6113C179.959 32.6191 180.004 32.625 180.047 32.6289C180.309 32.6367 180.533 32.5996 180.721 32.5176C180.912 32.4355 181.076 32.3145 181.213 32.1543C181.354 31.9941 181.479 31.8027 181.588 31.5801L182.25 30.2793ZM181.957 24.6602L182.713 29.6406L182.783 30.7598L181.992 31.1465L180.844 24.6602H181.957ZM186.088 27.9355L186.105 27.8008C186.152 27.375 186.258 26.9648 186.422 26.5703C186.59 26.1758 186.811 25.8242 187.084 25.5156C187.357 25.207 187.682 24.9648 188.057 24.7891C188.432 24.6133 188.85 24.5312 189.311 24.543C189.756 24.5508 190.137 24.6465 190.453 24.8301C190.773 25.0137 191.031 25.2578 191.227 25.5625C191.426 25.8633 191.564 26.2031 191.643 26.582C191.721 26.9609 191.74 27.3516 191.701 27.7539L191.689 27.8887C191.639 28.3145 191.529 28.7227 191.361 29.1133C191.193 29.5039 190.971 29.8516 190.693 30.1562C190.42 30.4609 190.096 30.7012 189.721 30.877C189.346 31.0488 188.93 31.1289 188.473 31.1172C188.031 31.1094 187.65 31.0156 187.33 30.8359C187.014 30.6523 186.758 30.4102 186.562 30.1094C186.367 29.8086 186.23 29.4707 186.152 29.0957C186.074 28.7207 186.053 28.334 186.088 27.9355ZM187.16 27.8008L187.148 27.9414C187.121 28.1875 187.119 28.4434 187.143 28.709C187.17 28.9746 187.232 29.2207 187.33 29.4473C187.432 29.6738 187.578 29.8594 187.77 30.0039C187.961 30.1484 188.209 30.2246 188.514 30.2324C188.838 30.2402 189.123 30.1777 189.369 30.0449C189.615 29.9082 189.824 29.7246 189.996 29.4941C190.172 29.2637 190.311 29.0078 190.412 28.7266C190.518 28.4453 190.588 28.166 190.623 27.8887L190.635 27.7539C190.662 27.5078 190.662 27.252 190.635 26.9863C190.611 26.7168 190.549 26.4668 190.447 26.2363C190.35 26.002 190.205 25.8125 190.014 25.668C189.822 25.5195 189.574 25.4414 189.27 25.4336C188.945 25.4219 188.658 25.4863 188.408 25.627C188.162 25.7637 187.953 25.9492 187.781 26.1836C187.609 26.418 187.471 26.6777 187.365 26.9629C187.264 27.2441 187.195 27.5234 187.16 27.8008ZM196.488 29.4766L197.32 24.6602H198.387L197.285 31H196.271L196.488 29.4766ZM196.887 28.1992L197.32 28.1816C197.27 28.5801 197.18 28.959 197.051 29.3184C196.922 29.6738 196.746 29.9902 196.523 30.2676C196.305 30.541 196.031 30.7559 195.703 30.9121C195.379 31.0645 194.994 31.1348 194.549 31.123C194.201 31.1113 193.91 31.041 193.676 30.9121C193.445 30.7832 193.264 30.6094 193.131 30.3906C192.998 30.1719 192.91 29.9219 192.867 29.6406C192.824 29.3594 192.818 29.0625 192.85 28.75L193.535 24.6602H194.596L193.91 28.7676C193.895 28.9395 193.893 29.1094 193.904 29.2773C193.916 29.4414 193.951 29.5918 194.01 29.7285C194.068 29.8652 194.158 29.9766 194.279 30.0625C194.404 30.1445 194.568 30.1895 194.771 30.1973C195.193 30.2129 195.551 30.1348 195.844 29.9629C196.137 29.7871 196.369 29.5449 196.541 29.2363C196.713 28.9277 196.828 28.582 196.887 28.1992ZM204.475 30.2324C204.732 30.2363 204.973 30.1875 205.195 30.0859C205.418 29.9844 205.607 29.8398 205.764 29.6523C205.92 29.4648 206.031 29.248 206.098 29.002L207.105 28.9961C207.043 29.4219 206.877 29.7949 206.607 30.1152C206.342 30.4355 206.016 30.6855 205.629 30.8652C205.246 31.041 204.846 31.125 204.428 31.1172C203.982 31.1094 203.604 31.0176 203.291 30.8418C202.982 30.6621 202.734 30.4238 202.547 30.127C202.359 29.8301 202.23 29.4961 202.16 29.125C202.09 28.75 202.074 28.3652 202.113 27.9707L202.137 27.7188C202.184 27.293 202.287 26.8887 202.447 26.5059C202.607 26.1191 202.82 25.7773 203.086 25.4805C203.355 25.1797 203.674 24.9453 204.041 24.7773C204.408 24.6094 204.82 24.5312 205.277 24.543C205.723 24.5508 206.109 24.6562 206.438 24.8594C206.766 25.0586 207.02 25.3301 207.199 25.6738C207.379 26.0176 207.469 26.4082 207.469 26.8457L206.473 26.8398C206.469 26.5898 206.42 26.3594 206.326 26.1484C206.232 25.9375 206.094 25.7676 205.91 25.6387C205.727 25.5098 205.5 25.4395 205.23 25.4277C204.906 25.4199 204.623 25.4805 204.381 25.6094C204.143 25.7383 203.939 25.916 203.771 26.1426C203.607 26.3652 203.477 26.6133 203.379 26.8867C203.285 27.1602 203.221 27.4375 203.186 27.7188L203.156 27.9648C203.133 28.2148 203.129 28.4707 203.145 28.7324C203.164 28.9941 203.219 29.2383 203.309 29.4648C203.398 29.6875 203.537 29.8691 203.725 30.0098C203.912 30.1504 204.162 30.2246 204.475 30.2324ZM208.201 27.9355L208.219 27.8008C208.266 27.375 208.371 26.9648 208.535 26.5703C208.703 26.1758 208.924 25.8242 209.197 25.5156C209.471 25.207 209.795 24.9648 210.17 24.7891C210.545 24.6133 210.963 24.5312 211.424 24.543C211.869 24.5508 212.25 24.6465 212.566 24.8301C212.887 25.0137 213.145 25.2578 213.34 25.5625C213.539 25.8633 213.678 26.2031 213.756 26.582C213.834 26.9609 213.854 27.3516 213.814 27.7539L213.803 27.8887C213.752 28.3145 213.643 28.7227 213.475 29.1133C213.307 29.5039 213.084 29.8516 212.807 30.1562C212.533 30.4609 212.209 30.7012 211.834 30.877C211.459 31.0488 211.043 31.1289 210.586 31.1172C210.145 31.1094 209.764 31.0156 209.443 30.8359C209.127 30.6523 208.871 30.4102 208.676 30.1094C208.48 29.8086 208.344 29.4707 208.266 29.0957C208.188 28.7207 208.166 28.334 208.201 27.9355ZM209.273 27.8008L209.262 27.9414C209.234 28.1875 209.232 28.4434 209.256 28.709C209.283 28.9746 209.346 29.2207 209.443 29.4473C209.545 29.6738 209.691 29.8594 209.883 30.0039C210.074 30.1484 210.322 30.2246 210.627 30.2324C210.951 30.2402 211.236 30.1777 211.482 30.0449C211.729 29.9082 211.938 29.7246 212.109 29.4941C212.285 29.2637 212.424 29.0078 212.525 28.7266C212.631 28.4453 212.701 28.166 212.736 27.8887L212.748 27.7539C212.775 27.5078 212.775 27.252 212.748 26.9863C212.725 26.7168 212.662 26.4668 212.561 26.2363C212.463 26.002 212.318 25.8125 212.127 25.668C211.936 25.5195 211.688 25.4414 211.383 25.4336C211.059 25.4219 210.771 25.4863 210.521 25.627C210.275 25.7637 210.066 25.9492 209.895 26.1836C209.723 26.418 209.584 26.6777 209.479 26.9629C209.377 27.2441 209.309 27.5234 209.273 27.8008ZM216.568 29.9688L219.064 24.6602H220.184L216.979 31H216.234L216.568 29.9688ZM215.982 24.6602L216.885 30.1035L216.855 31H216.176L214.934 24.6602H215.982ZM222.715 31.1172C222.281 31.1094 221.904 31.0234 221.584 30.8594C221.268 30.6914 221.008 30.4668 220.805 30.1855C220.605 29.9004 220.463 29.5762 220.377 29.2129C220.291 28.8496 220.266 28.4688 220.301 28.0703L220.324 27.8184C220.363 27.4121 220.463 27.0137 220.623 26.623C220.783 26.2285 220.996 25.873 221.262 25.5566C221.531 25.2402 221.848 24.9902 222.211 24.8066C222.578 24.6191 222.984 24.5312 223.43 24.543C223.871 24.5508 224.238 24.6445 224.531 24.8242C224.824 25.0039 225.053 25.2422 225.217 25.5391C225.385 25.832 225.494 26.1621 225.545 26.5293C225.596 26.8926 225.6 27.2656 225.557 27.6484L225.492 28.1348H220.893L221.033 27.25L224.543 27.2559L224.561 27.1621C224.6 26.8809 224.584 26.6094 224.514 26.3477C224.443 26.0859 224.314 25.8711 224.127 25.7031C223.943 25.5312 223.695 25.4414 223.383 25.4336C223.059 25.4219 222.777 25.4883 222.539 25.6328C222.301 25.7734 222.102 25.9648 221.941 26.207C221.781 26.4453 221.654 26.707 221.561 26.9922C221.471 27.2734 221.408 27.5488 221.373 27.8184L221.35 28.0645C221.326 28.3145 221.334 28.5664 221.373 28.8203C221.412 29.0742 221.486 29.3066 221.596 29.5176C221.709 29.7246 221.865 29.8945 222.064 30.0273C222.264 30.1562 222.51 30.2246 222.803 30.2324C223.158 30.2402 223.477 30.1641 223.758 30.0039C224.043 29.8398 224.303 29.6328 224.537 29.3828L225.141 29.8984C224.957 30.168 224.738 30.3945 224.484 30.5781C224.23 30.7617 223.953 30.8984 223.652 30.9883C223.352 31.0781 223.039 31.1211 222.715 31.1172ZM228.188 25.7031L227.268 31H226.207L227.309 24.6602H228.34L228.188 25.7031ZM230.244 24.6074L230.145 25.627C230.062 25.6113 229.979 25.5977 229.893 25.5859C229.811 25.5742 229.729 25.5684 229.646 25.5684C229.393 25.5645 229.164 25.6035 228.961 25.6855C228.762 25.7637 228.584 25.875 228.428 26.0195C228.275 26.1641 228.145 26.334 228.035 26.5293C227.93 26.7246 227.846 26.9355 227.783 27.1621L227.449 27.3379C227.492 27.0215 227.562 26.6973 227.66 26.3652C227.762 26.0332 227.9 25.7266 228.076 25.4453C228.256 25.1641 228.48 24.9375 228.75 24.7656C229.023 24.5938 229.352 24.5137 229.734 24.5254C229.82 24.5254 229.904 24.5332 229.986 24.5488C230.072 24.5645 230.158 24.584 230.244 24.6074ZM232.723 31.1172C232.289 31.1094 231.912 31.0234 231.592 30.8594C231.275 30.6914 231.016 30.4668 230.812 30.1855C230.613 29.9004 230.471 29.5762 230.385 29.2129C230.299 28.8496 230.273 28.4688 230.309 28.0703L230.332 27.8184C230.371 27.4121 230.471 27.0137 230.631 26.623C230.791 26.2285 231.004 25.873 231.27 25.5566C231.539 25.2402 231.855 24.9902 232.219 24.8066C232.586 24.6191 232.992 24.5312 233.438 24.543C233.879 24.5508 234.246 24.6445 234.539 24.8242C234.832 25.0039 235.061 25.2422 235.225 25.5391C235.393 25.832 235.502 26.1621 235.553 26.5293C235.604 26.8926 235.607 27.2656 235.564 27.6484L235.5 28.1348H230.9L231.041 27.25L234.551 27.2559L234.568 27.1621C234.607 26.8809 234.592 26.6094 234.521 26.3477C234.451 26.0859 234.322 25.8711 234.135 25.7031C233.951 25.5312 233.703 25.4414 233.391 25.4336C233.066 25.4219 232.785 25.4883 232.547 25.6328C232.309 25.7734 232.109 25.9648 231.949 26.207C231.789 26.4453 231.662 26.707 231.568 26.9922C231.479 27.2734 231.416 27.5488 231.381 27.8184L231.357 28.0645C231.334 28.3145 231.342 28.5664 231.381 28.8203C231.42 29.0742 231.494 29.3066 231.604 29.5176C231.717 29.7246 231.873 29.8945 232.072 30.0273C232.271 30.1562 232.518 30.2246 232.811 30.2324C233.166 30.2402 233.484 30.1641 233.766 30.0039C234.051 29.8398 234.311 29.6328 234.545 29.3828L235.148 29.8984C234.965 30.168 234.746 30.3945 234.492 30.5781C234.238 30.7617 233.961 30.8984 233.66 30.9883C233.359 31.0781 233.047 31.1211 232.723 31.1172ZM240.316 29.7051L241.652 22H242.719L241.154 31H240.188L240.316 29.7051ZM236.496 27.9473L236.508 27.8242C236.559 27.4336 236.652 27.043 236.789 26.6523C236.93 26.2617 237.119 25.9043 237.357 25.5801C237.596 25.2559 237.885 24.998 238.225 24.8066C238.564 24.6152 238.961 24.5254 239.414 24.5371C239.82 24.5488 240.16 24.6445 240.434 24.8242C240.707 25.0039 240.922 25.2422 241.078 25.5391C241.238 25.832 241.346 26.1543 241.4 26.5059C241.459 26.8574 241.477 27.2109 241.453 27.5664L241.389 28.1055C241.322 28.4844 241.213 28.8555 241.061 29.2188C240.908 29.582 240.711 29.9102 240.469 30.2031C240.23 30.4922 239.943 30.7207 239.607 30.8887C239.275 31.0566 238.895 31.1348 238.465 31.123C238.051 31.1074 237.707 31 237.434 30.8008C237.164 30.6016 236.953 30.3457 236.801 30.0332C236.652 29.7168 236.555 29.377 236.508 29.0137C236.465 28.6465 236.461 28.291 236.496 27.9473ZM237.586 27.8125L237.574 27.9355C237.547 28.1699 237.537 28.418 237.545 28.6797C237.557 28.9375 237.602 29.1816 237.68 29.4121C237.758 29.6387 237.885 29.8262 238.061 29.9746C238.236 30.1191 238.475 30.1973 238.775 30.209C239.096 30.2168 239.393 30.1445 239.666 29.9922C239.939 29.8398 240.174 29.6367 240.369 29.3828C240.564 29.1289 240.705 28.8535 240.791 28.5566L241.02 27.1328C241.031 26.918 241.006 26.7129 240.943 26.5176C240.881 26.3184 240.787 26.1406 240.662 25.9844C240.541 25.8281 240.391 25.7031 240.211 25.6094C240.035 25.5117 239.838 25.4609 239.619 25.457C239.291 25.4453 239.008 25.5098 238.77 25.6504C238.531 25.7871 238.33 25.9727 238.166 26.207C238.006 26.4375 237.879 26.6934 237.785 26.9746C237.691 27.2559 237.625 27.5352 237.586 27.8125ZM245.52 22.4688L244.383 28.5918H243.422L244.406 22.4688H245.52ZM242.988 30.4727C242.992 30.2891 243.051 30.1367 243.164 30.0156C243.281 29.8906 243.432 29.8262 243.615 29.8223C243.795 29.8184 243.943 29.875 244.061 29.9922C244.182 30.1094 244.24 30.2578 244.236 30.4375C244.236 30.6172 244.176 30.7676 244.055 30.8887C243.938 31.0098 243.789 31.0723 243.609 31.0762C243.43 31.0801 243.281 31.0254 243.164 30.9121C243.047 30.7988 242.988 30.6523 242.988 30.4727Z" fill="white"/>
</svg>
