<svg width="32" height="43" viewBox="0 0 32 43" fill="none" xmlns="http://www.w3.org/2000/svg">
<path d="M5.016 14.68V24.832C5.016 26.192 5.344 27.184 6 27.808C6.656 28.416 7.504 28.72 8.544 28.72C9.6 28.72 10.448 28.4 11.088 27.76C11.744 27.12 12.072 26.144 12.072 24.832V14.68H15.216V25.072C15.216 26.832 14.608 28.304 13.392 29.488C12.192 30.672 10.56 31.264 8.496 31.264C6.464 31.264 4.848 30.672 3.648 29.488C2.464 28.304 1.872 26.832 1.872 25.072V14.68H5.016ZM29.2294 17.632C28.4614 17.392 27.8534 17.224 27.4054 17.128C26.9574 17.016 26.4134 16.96 25.7734 16.96C24.4774 16.96 23.4774 17.488 22.7734 18.544C22.0694 19.6 21.7174 21.048 21.7174 22.888C21.7174 24.472 22.0134 25.84 22.6054 26.992C23.1974 28.144 24.1894 28.72 25.5814 28.72C26.2694 28.72 26.9094 28.648 27.5014 28.504C28.1094 28.36 28.6614 28.184 29.1574 27.976L30.3334 30.28C29.7094 30.6 28.9574 30.856 28.0774 31.048C27.1974 31.24 26.4214 31.336 25.7494 31.336C23.2054 31.336 21.3574 30.52 20.2054 28.888C19.0534 27.256 18.4774 25.264 18.4774 22.912C18.4774 20.4 19.1094 18.344 20.3734 16.744C21.6534 15.144 23.4854 14.344 25.8694 14.344C26.3494 14.344 27.0134 14.424 27.8614 14.584C28.7094 14.744 29.4854 15.016 30.1894 15.4L29.2294 17.632Z" fill="white"/>
</svg>
